<svg xmlns="http://www.w3.org/2000/svg" viewBox="0 0 48 48"><path d="M29.612 43.082h-18.18C9.537 43.082 8 41.536 8 39.63v-4.452c0-5.432 4.38-9.836 9.782-9.836h4.88c5.47 0 9.906 4.46 9.906 9.96v4.807a2.966 2.966 0 0 1-2.956 2.973zm-3.105-28.087c0 3.703-2.787 7.477-6.224 7.477-3.437 0-6.224-3.774-6.224-7.477 0-3.703 2.787-6.705 6.224-6.705 3.437 0 6.224 3.002 6.224 6.705zM35.713 4h-7.172a4.315 4.315 0 0 0-4.219 3.454c2.345 1.45 3.95 4.119 4.047 7.192.057.002.115.004.172.004h4.701l-1.03 3.223c-.144.45.417.786.742.444l3.85-3.807a4.331 4.331 0 0 0 3.22-4.193V8.333C40.021 5.94 38.093 4 35.713 4z"/></svg>
