<svg xmlns="http://www.w3.org/2000/svg" viewBox="0 0 48 48"><path fill-rule="evenodd" d="M33.916 38.033H14.074V26.95h.001v-3.916h-.001V9.97h19.842v28.064-.001zm-10.231 4.475c-.926 0-1.677-.712-1.677-1.595 0-.885.751-1.596 1.677-1.596.925 0 1.675.711 1.675 1.596 0 .881-.75 1.595-1.675 1.595zM36 30.924V5.919C36 4.863 35.095 4 33.98 4H14.015C12.905 4 12 4.863 12 5.919v36.164c0 1.06.905 1.917 2.016 1.917H33.98c1.115 0 2.02-.856 2.02-1.917V30.924zm-16.24-2.352 2.178-2.077-.01 1.441c-.016.565.398.892.92.892.532 0 .95-.4.95-.892V26.14a.896.896 0 0 0-.593-.834 2.293 2.293 0 0 1-1.35-1.284.934.934 0 0 0-.882-.564h-1.88c-.523 0-.935.394-.935.902 0 .497.344.895.935.877l1.512-.014-2.18 2.077a.874.874 0 0 0 0 1.274.984.984 0 0 0 1.336 0v-.001zm.843-7.266-1.512-.014c-.59-.015-.932.382-.932.877 0 .51.41.904.932.904h1.88c.42 0 .756-.246.882-.563a2.312 2.312 0 0 1 1.35-1.287.884.884 0 0 0 .593-.834V18.59c0-.489-.417-.89-.949-.89-.52 0-.935.33-.92.89l.01 1.441-2.178-2.075a.981.981 0 0 0-1.337 0 .875.875 0 0 0 0 1.275l2.18 2.074h.001zm4.19-.083a2.31 2.31 0 0 1 1.35 1.287c.13.32.463.563.88.563h1.887c.52 0 .93-.394.93-.904 0-.495-.34-.89-.93-.877l-1.516.014 2.181-2.074a.877.877 0 0 0 0-1.275.981.981 0 0 0-1.336 0l-2.181 2.075.013-1.44c.017-.562-.4-.89-.92-.89-.531 0-.95.4-.95.89v1.797c0 .394.258.714.594.834h-.001zm.356 7.605c.52 0 .935-.327.92-.892l-.013-1.44 2.181 2.076c.37.352.97.347 1.337 0a.875.875 0 0 0 0-1.274l-2.181-2.078 1.516.015c.588.017.93-.38.93-.877 0-.508-.41-.902-.93-.902H27.02c-.415 0-.754.246-.88.564a2.31 2.31 0 0 1-1.349 1.284.89.89 0 0 0-.595.834v1.797c0 .492.418.891.95.891l.002.002z"/></svg>
