<svg xmlns="http://www.w3.org/2000/svg" viewBox="0 0 48 48"><path d="M43.999 24.314c0-3.406-2.273-6.201-5.067-6.288v-.349c-.173-3.581-1.745-6.812-4.452-9.083C31.683 6.322 28.105 5.1 24 5.1h-.087c-4.105 0-7.685 1.223-10.394 3.406-2.706 2.271-4.278 5.502-4.454 9.083v.349C6.268 18.026 4 20.821 4 24.227s2.27 6.201 5.065 6.288v.962c0 .699.611 1.223 1.224 1.223.699 0 1.223-.611 1.223-1.31 0-.087-.175-10.218 0-13.711.175-2.97 1.397-5.502 3.581-7.25 2.271-1.834 5.24-2.882 8.733-2.882h.087c3.491 0 6.548.961 8.731 2.882 2.183 1.834 3.406 4.368 3.583 7.25.087 2.182.087 4.367.087 6.55v2.707c.085 2.62.085 5.327-1.137 7.423-1.046 1.834-2.88 3.406-4.539 4.016-1.223.438-2.882.7-4.542.7-.436-.7-1.309-1.224-2.182-1.224-1.485 0-2.62 1.134-2.62 2.62 0 1.486 1.135 2.62 2.62 2.62 1.049 0 1.92-.61 2.359-1.572 1.92 0 3.754-.348 5.151-.872 2.273-.786 4.456-2.796 5.853-5.065.96-1.572 1.308-3.32 1.397-5.154 3.055.087 5.326-2.706 5.326-6.112z" fill-rule="evenodd"/></svg>
