<svg xmlns="http://www.w3.org/2000/svg" fill="none" height="70" viewBox="0 0 94 70" width="94">
<g clip-path="url(#clip0_protect_family)">
<mask height="70" id="mask0_protect_family" maskUnits="userSpaceOnUse" style="mask-type:luminance" width="94" x="0" y="0">
<path d="M94 0H0V70H94V0Z" fill="white"></path>
</mask>
<g mask="url(#mask0_protect_family)">
<path d="M82.7534 49.6712C83.9041 47.7534 84.4795 45.5479 84.4795 43.0548V40.5616C84.4795 34.137 79.9726 28.863 74.411 28.863C73.9315 28.863 73.4521 28.9589 73.0685 28.9589C70.863 25.6027 67.6027 22.726 64.5342 20.9041C65.6849 18.9863 66.2603 16.7808 66.2603 14.2877V11.7945C66.2603 5.27397 61.7534 0 56.1918 0C50.6301 0 46.1233 5.27397 46.1233 11.6986V14.1918C46.1233 16.589 46.7945 18.8904 47.8493 20.7123C44.6849 22.4384 41.4247 25.411 39.1233 28.7671C38.1644 28.6712 37.3014 28.6712 36.5342 28.7671C34.3288 25.411 31.0685 22.5342 28 20.7123C29.1507 18.7945 29.726 16.589 29.726 14.0959V11.6027C29.8219 5.27397 25.3151 0 19.7534 0C14.1918 0 9.68493 5.27397 9.68493 11.6986V14.1918C9.68493 16.589 10.3562 18.8904 11.411 20.7123C6.42466 23.4931 0.958904 29.2466 0.0958904 35.1918C0.0958904 35.3836 0 35.5753 0 50.8219C0 52.7397 2.87671 52.7397 2.87671 50.8219C2.87671 39.1233 2.9726 36.0548 2.9726 35.5753C3.73973 30.6849 8.72603 25.411 13.2329 23.1096C17.1644 27.137 22.726 26.8493 26.274 23.2055C28.9589 24.6438 31.8356 27.137 33.8493 29.9178C30.3973 31.7397 28 35.863 28 40.5616V43.0548C28 45.4521 28.6712 47.7534 29.726 49.5753C25.411 51.9726 20.8082 56.5753 19.0822 61.5616H13.0411H1.43836C-0.479452 61.5616 -0.479452 64.4384 1.43836 64.4384H12.8493H18.2192C18.2192 64.9178 18.1233 65.3973 18.1233 65.7808C18.0274 68.1781 20.137 69.4247 21.6712 69.4247H53.7945C54.5616 69.4247 55.3288 69.137 55.9041 68.6575C56.4795 69.137 57.2466 69.4247 58.0137 69.4247H90.137C92.6301 69.4247 93.7808 67.1233 93.6849 65.7808C93.6849 65.3973 93.6849 64.726 93.589 64.3425C93.1096 58.3014 87.7397 52.4521 82.7534 49.6712ZM26.9452 14.2877C26.9452 19.1781 23.6849 23.1096 19.7534 23.1096C15.8219 23.1096 12.5616 19.1781 12.5616 14.2877V11.7945C12.5616 6.90411 15.726 2.9726 19.7534 2.9726C23.7808 2.9726 26.9452 6.90411 26.9452 11.7945V14.2877ZM74.411 31.6438C78.3425 31.6438 81.6027 35.5753 81.6027 40.4658V42.9589C81.6027 47.8493 78.4384 51.7808 74.411 51.7808C70.3836 51.7808 67.2192 47.8493 67.2192 42.9589V40.4658C67.3151 35.6712 70.4795 31.6438 74.411 31.6438ZM49 11.6986C49 6.80822 52.2603 2.87671 56.1918 2.87671C60.1233 2.87671 63.3836 6.80822 63.3836 11.6986V14.1918C63.3836 19.0822 60.2192 23.0137 56.1918 23.0137C52.1644 23.0137 49 19.0822 49 14.1918V11.6986ZM30.7808 43.0548V40.5616C30.7808 35.6712 33.9452 31.7397 37.9726 31.7397C42 31.7397 45.1644 35.6712 45.1644 40.5616V43.0548C45.1644 47.9452 41.9041 51.8767 37.9726 51.8767C34.0411 51.8767 30.7808 47.9452 30.7808 43.0548ZM53.8904 66.4521H21.7671C21.2877 66.4521 21.0959 65.9726 21.0959 65.6849C21.0959 65.3014 21.0959 64.726 21.1918 64.3425C21.9589 59.3562 26.9452 54.1781 31.4521 51.7808C35.0959 55.6164 40.9452 55.5205 44.4931 51.8767C49.0959 54.274 53.9863 59.5479 54.5616 64.5342C54.5616 64.8219 54.6575 65.3014 54.6575 65.6849C54.6575 65.9726 54.4658 66.4521 53.8904 66.4521ZM46.2192 49.6712C47.3699 47.7534 47.9452 45.5479 47.9452 43.0548V40.5616C47.9452 35.7671 45.4521 31.6438 41.9041 29.8219C43.9178 27.0411 46.7945 24.5479 49.4795 23.1096C53.1233 26.9452 59.1644 26.8493 62.5205 23.2055C65.2055 24.6438 68.0822 27.137 70.0959 29.9178C66.6438 31.7397 64.2466 35.863 64.2466 40.5616V43.0548C64.2466 45.4521 64.9178 47.7534 65.9726 49.5753C62.137 51.6849 58.1096 55.6164 56 59.9315C53.9863 55.6164 50.0548 51.7808 46.2192 49.6712ZM90.4247 66.4521H58.2055C57.726 66.4521 57.5342 65.9726 57.5342 65.6849C57.5342 65.3014 57.5342 64.726 57.6301 64.3425C58.3973 59.3562 63.3836 54.1781 67.8904 51.7808C71.4384 55.4247 77 55.8082 80.9315 51.8767C85.5342 54.274 90.4247 59.5479 91 64.5342C91 64.8219 91.0959 65.3014 91.0959 65.6849C91.0959 65.9726 90.9041 66.4521 90.4247 66.4521Z" fill="#474952"></path>
</g>
</g>
<defs>
<clipPath id="clip0_protect_family">
<rect fill="white" height="70" width="94"></rect>
</clipPath>
</defs>
</svg>
