<svg xmlns="http://www.w3.org/2000/svg" fill="none" height="48" viewBox="0 0 48 48" width="48">
<path d="M40.2602 17.412H35.3227V11.3192C35.3227 8.31716 34.1301 5.43808 32.0074 3.31532C29.8846 1.19255 27.0055 0 24.0035 0C21.0015 0 18.1224 1.19255 15.9996 3.31532C13.8769 5.43808 12.6843 8.31716 12.6843 11.3192V17.412H7.78115C7.50868 17.4064 7.23789 17.4559 6.98506 17.5576C6.73222 17.6593 6.50255 17.8111 6.30984 18.0038C6.11714 18.1965 5.96539 18.4261 5.8637 18.679C5.76201 18.9318 5.71249 19.2026 5.71811 19.4751V45.9713C5.71025 46.2451 5.75869 46.5176 5.86041 46.772C5.96214 47.0263 6.115 47.257 6.30951 47.4499C6.50569 47.6351 6.73696 47.7792 6.98971 47.8737C7.24245 47.9682 7.51155 48.0111 7.78115 48H40.2465C40.4647 47.981 40.6679 47.8807 40.8157 47.7189C40.9634 47.5571 41.045 47.3457 41.0442 47.1266C41.0449 46.9083 40.9631 46.6977 40.8152 46.537C40.6673 46.3764 40.4642 46.2775 40.2465 46.2602H7.78115C7.74123 46.2635 7.70105 46.2585 7.66316 46.2455C7.62528 46.2325 7.59052 46.2117 7.56109 46.1845C7.53371 46.1566 7.51276 46.1231 7.49969 46.0863C7.48663 46.0495 7.48176 46.0102 7.48544 45.9713V19.4476C7.47628 19.3796 7.4935 19.3107 7.53358 19.255C7.56413 19.2203 7.60256 19.1935 7.64564 19.1767C7.68872 19.16 7.73519 19.1538 7.78115 19.1587H40.2465C40.2855 19.1544 40.3249 19.1588 40.362 19.1718C40.399 19.1848 40.4326 19.2059 40.4604 19.2336C40.4881 19.2614 40.5093 19.295 40.5222 19.3321C40.5352 19.3691 40.5397 19.4086 40.5353 19.4476V39.961C40.5353 40.1927 40.6273 40.4148 40.7911 40.5786C40.9549 40.7424 41.177 40.8344 41.4087 40.8344C41.6403 40.8344 41.8624 40.7424 42.0262 40.5786C42.19 40.4148 42.282 40.1927 42.282 39.961V19.4476C42.2894 19.1781 42.2425 18.9099 42.144 18.659C42.0455 18.4081 41.8976 18.1795 41.7089 17.987C41.5202 17.7945 41.2947 17.6419 41.0458 17.5384C40.797 17.4349 40.5298 17.3826 40.2602 17.3845V17.412ZM19.2379 17.412V11.6905C19.2379 10.4266 19.74 9.21447 20.6337 8.32074C21.5274 7.42702 22.7396 6.92493 24.0035 6.92493C25.2674 6.92493 26.4796 7.42702 27.3733 8.32074C28.267 9.21447 28.7691 10.4266 28.7691 11.6905V17.4189L19.2379 17.412ZM30.5089 17.412V11.6905C30.5089 9.96519 29.8235 8.31051 28.6035 7.0905C27.3835 5.87049 25.7288 5.1851 24.0035 5.1851C22.2781 5.1851 20.6235 5.87049 19.4035 7.0905C18.1834 8.31051 17.4981 9.96519 17.4981 11.6905V17.4189H14.4241V11.3192C14.436 9.42679 15.0054 7.57985 16.0611 6.00921C17.1167 4.43857 18.6119 3.21389 20.3597 2.48821C22.1075 1.76253 24.0304 1.56805 25.8881 1.92907C27.7458 2.29009 29.4559 3.1906 30.8046 4.51805C31.6925 5.41173 32.3931 6.47358 32.8654 7.64141C33.3377 8.80924 33.5723 10.0596 33.5554 11.3192V17.412H30.5089ZM24.0035 42.0447C24.3374 42.0503 24.6689 41.9886 24.9785 41.8634C25.2881 41.7382 25.5693 41.552 25.8054 41.3159C26.0415 41.0798 26.2277 40.7986 26.3529 40.489C26.4781 40.1795 26.5397 39.8479 26.5342 39.514V32.1834C26.5329 31.9925 26.5713 31.8034 26.6471 31.6282C26.7229 31.453 26.8343 31.2954 26.9743 31.1656C27.6515 30.5633 28.1295 29.7693 28.3451 28.889C28.5607 28.0087 28.5036 27.0836 28.1814 26.2365C27.8591 25.3894 27.287 24.6603 26.5409 24.1458C25.7947 23.6314 24.9098 23.3558 24.0035 23.3558C23.0972 23.3558 22.2123 23.6314 21.4661 24.1458C20.72 24.6603 20.1479 25.3894 19.8256 26.2365C19.5034 27.0836 19.4463 28.0087 19.6619 28.889C19.8774 29.7693 20.3555 30.5633 21.0327 31.1656C21.1748 31.2956 21.288 31.454 21.365 31.6305C21.442 31.807 21.4811 31.9977 21.4797 32.1903V39.514C21.4722 39.8478 21.5323 40.1797 21.6564 40.4897C21.7805 40.7996 21.966 41.0813 22.2018 41.3177C22.4376 41.5541 22.7187 41.7404 23.0284 41.8653C23.338 41.9903 23.6697 42.0513 24.0035 42.0447ZM20.6958 27.8441C20.6923 27.2909 20.8277 26.7456 21.0895 26.2582C21.3514 25.7708 21.7313 25.3569 22.1945 25.0543C22.6577 24.7517 23.1894 24.5702 23.7409 24.5262C24.2924 24.4823 24.8461 24.5775 25.3514 24.8029C25.8566 25.0284 26.2972 25.377 26.6329 25.8168C26.9686 26.2566 27.1885 26.7736 27.2727 27.3204C27.3568 27.8673 27.3025 28.4265 27.1146 28.9469C26.9267 29.4673 26.6113 29.9322 26.1972 30.2991C25.9356 30.54 25.7267 30.8323 25.5835 31.1577C25.4403 31.4832 25.3659 31.8347 25.3651 32.1903V39.514C25.3651 39.8788 25.2202 40.2286 24.9623 40.4866C24.7043 40.7445 24.3545 40.8894 23.9897 40.8894C23.625 40.8894 23.2751 40.7445 23.0172 40.4866C22.7593 40.2286 22.6144 39.8788 22.6144 39.514V32.204C22.6176 31.8458 22.5451 31.491 22.4017 31.1627C22.2583 30.8345 22.0473 30.5402 21.7823 30.2991C21.4369 29.9908 21.1613 29.6123 20.9739 29.189C20.7865 28.7656 20.6917 28.3071 20.6958 27.8441V27.8441Z" fill="#474952"></path>
</svg>
