<svg xmlns="http://www.w3.org/2000/svg" fill="none" height="48" viewBox="0 0 48 48" width="48">
<path d="M44.7497 7.72114H32.5097V6C32.5325 5.22544 32.4007 4.45411 32.1219 3.73112C31.8431 3.00812 31.4229 2.34798 30.8859 1.7893C30.349 1.23062 29.706 0.784626 28.9946 0.477395C28.2832 0.170164 27.5177 0.00786833 26.7429 0L21.1131 0C20.3369 0.00512161 19.5694 0.165448 18.856 0.471547C18.1426 0.777646 17.4976 1.22333 16.959 1.78239C16.4204 2.34145 15.9991 3.00258 15.7197 3.72689C15.4404 4.4512 15.3088 5.22406 15.3326 6V7.74171H3.264C2.40478 7.74345 1.58075 8.0832 0.969997 8.68754C0.359239 9.29188 0.010806 10.1123 0 10.9714L0 16.1486C0 16.3923 0.0968079 16.626 0.269127 16.7983C0.441446 16.9706 0.675161 17.0674 0.918857 17.0674C1.16255 17.0674 1.39627 16.9706 1.56859 16.7983C1.74091 16.626 1.83771 16.3923 1.83771 16.1486V10.9714C1.83771 10.5925 1.98776 10.229 2.25504 9.96046C2.52233 9.69189 2.8851 9.5401 3.264 9.53829H8.00229V45.8811H3.264C3.0761 45.8812 2.89008 45.8437 2.71695 45.7707C2.54381 45.6976 2.38707 45.5906 2.256 45.456C1.98845 45.1887 1.838 44.8262 1.83771 44.448V23.7394C1.83771 23.4957 1.74091 23.262 1.56859 23.0897C1.39627 22.9174 1.16255 22.8206 0.918857 22.8206C0.675161 22.8206 0.441446 22.9174 0.269127 23.0897C0.0968079 23.262 0 23.4957 0 23.7394L0 44.4617C-1.9037e-06 45.328 0.343664 46.1589 0.955586 46.7721C1.56751 47.3853 2.3977 47.7308 3.264 47.7326H44.7497C45.6136 47.7271 46.4403 47.3801 47.0493 46.7673C47.6582 46.1545 48 45.3256 48 44.4617V10.9714C47.9946 10.1111 47.6504 9.28747 47.0421 8.67909C46.4337 8.07071 45.6101 7.72654 44.7497 7.72114ZM31.2823 9.55886V45.9017H16.56V9.55886H31.2823ZM32.5097 45.9017V9.55886H38.6811V45.9017H32.5097ZM17.1429 6C17.1283 5.47011 17.219 4.94259 17.4099 4.44805C17.6007 3.9535 17.8879 3.50177 18.2547 3.11905C18.6214 2.73633 19.0605 2.43023 19.5465 2.21852C20.0325 2.0068 20.5557 1.89368 21.0857 1.88571H26.7429C27.2744 1.89593 27.7987 2.0108 28.2858 2.22376C28.7729 2.43672 29.2133 2.7436 29.5817 3.12686C29.9489 3.51266 30.2351 3.96806 30.4235 4.46622C30.612 4.96437 30.6988 5.4952 30.6789 6.02743V7.76914H17.1429V6ZM9.17486 9.6H15.3463V45.9429H9.20229L9.17486 9.6ZM46.2034 44.4823C46.2031 44.8605 46.0527 45.223 45.7851 45.4903C45.6541 45.6249 45.4973 45.7319 45.3242 45.8049C45.1511 45.878 44.965 45.9155 44.7771 45.9154H39.8674V9.57257H44.7497C45.1228 9.57425 45.4804 9.72132 45.7468 9.98252C46.0131 10.2437 46.1671 10.5985 46.176 10.9714L46.2034 44.4823Z" fill="#474952"></path>
</svg>
