<svg xmlns="http://www.w3.org/2000/svg" fill="none" height="48" viewBox="0 0 48 48" width="48">
<path d="M47.7259 15.91L23.9244 3.09332C23.8185 3.03219 23.6984 3 23.5761 3C23.4539 3 23.3337 3.03219 23.2278 3.09332L0.359759 15.5478C0.196265 15.6402 0.0761603 15.7937 0.0258676 15.9747C-0.0244251 16.1556 -0.000786542 16.3491 0.0915831 16.5126C0.183953 16.6761 0.337487 16.7962 0.51841 16.8465C0.699334 16.8967 0.892825 16.8731 1.05632 16.7807L5.86259 14.1826V41.5992C5.86259 43.4103 7.68061 44.6641 9.34539 44.6641H29.5665C29.773 44.6837 29.9789 44.6218 30.1403 44.4917C30.3017 44.3615 30.4058 44.1734 30.4303 43.9675V26.9923C30.4303 26.9185 30.4156 26.8455 30.3872 26.7774C30.3588 26.7094 30.3171 26.6476 30.2646 26.5958C30.2121 26.544 30.1499 26.5031 30.0815 26.4755C30.013 26.4479 29.9398 26.4341 29.8661 26.4351H18.2056C18.0579 26.4351 17.9161 26.4938 17.8116 26.5983C17.7071 26.7028 17.6484 26.8445 17.6484 26.9923V43.2988H9.28967C8.33538 43.2988 7.19998 42.6022 7.19998 41.6271V13.4024L23.597 4.50734L40.8926 13.8204V41.6271C40.8982 42.0933 40.7188 42.5427 40.3937 42.8769C40.0687 43.2111 39.6244 43.4029 39.1582 43.4103H35.7172C35.5817 43.3903 35.4435 43.4108 35.3196 43.469C35.1957 43.5272 35.0917 43.6207 35.0206 43.7376C34.95 43.8491 34.9125 43.9783 34.9125 44.1103C34.9125 44.2422 34.95 44.3715 35.0206 44.483C35.0917 44.5999 35.1957 44.6934 35.3196 44.7516C35.4435 44.8098 35.5817 44.8302 35.7172 44.8103H39.1582C40.0001 44.8104 40.8081 44.4783 41.4067 43.8862C42.0053 43.2942 42.3462 42.4899 42.3554 41.648V14.5796L47.1477 17.143C47.3029 17.1786 47.4656 17.16 47.6087 17.0903C47.7518 17.0206 47.8668 16.904 47.9344 16.7598C48.002 16.6157 48.0181 16.4527 47.9802 16.2981C47.9423 16.1435 47.8525 16.0065 47.7259 15.91V15.91ZM18.7559 27.5147H29.3228V43.2709H18.7559V27.5147ZM26.6898 35.0515C26.5823 35.0515 26.4772 35.0834 26.3879 35.1431C26.2986 35.2028 26.2289 35.2876 26.1878 35.3869C26.1467 35.4862 26.1359 35.5954 26.1569 35.7008C26.1778 35.8062 26.2296 35.903 26.3056 35.979C26.3816 36.055 26.4784 36.1068 26.5838 36.1277C26.6891 36.1487 26.7984 36.1379 26.8977 36.0968C26.9969 36.0557 27.0818 35.986 27.1415 35.8967C27.2012 35.8073 27.2331 35.7023 27.2331 35.5948C27.2331 35.4507 27.1758 35.3126 27.0739 35.2107C26.972 35.1088 26.8338 35.0515 26.6898 35.0515V35.0515Z" fill="#474952"></path>
</svg>
